<mxfile host="app.diagrams.net" agent="Mozilla/5.0 (Windows NT 10.0; Win64; x64) AppleWebKit/537.36 (KHTML, like Gecko) Chrome/134.0.0.0 Safari/537.36 Edg/134.0.0.0" version="26.2.2">
  <diagram name="Page-1" id="QWfbEwhcG5euZyoSdKuD">
    <mxGraphModel dx="2367" dy="1310" grid="1" gridSize="10" guides="1" tooltips="1" connect="1" arrows="1" fold="1" page="1" pageScale="1" pageWidth="1654" pageHeight="1169" math="0" shadow="0">
      <root>
        <mxCell id="0" />
        <mxCell id="1" parent="0" />
        <mxCell id="sA9mIBYFut_a3zH17rOl-7" value="VPC" style="points=[[0,0],[0.25,0],[0.5,0],[0.75,0],[1,0],[1,0.25],[1,0.5],[1,0.75],[1,1],[0.75,1],[0.5,1],[0.25,1],[0,1],[0,0.75],[0,0.5],[0,0.25]];outlineConnect=0;gradientColor=none;html=1;whiteSpace=wrap;fontSize=12;fontStyle=0;container=1;pointerEvents=0;collapsible=0;recursiveResize=0;shape=mxgraph.aws4.group;grIcon=mxgraph.aws4.group_vpc2;strokeColor=#8C4FFF;fillColor=none;verticalAlign=top;align=left;spacingLeft=30;fontColor=#AAB7B8;dashed=0;" parent="1" vertex="1">
          <mxGeometry x="580" y="85" width="980" height="1000" as="geometry" />
        </mxCell>
        <mxCell id="sA9mIBYFut_a3zH17rOl-44" style="edgeStyle=orthogonalEdgeStyle;rounded=0;orthogonalLoop=1;jettySize=auto;html=1;" parent="sA9mIBYFut_a3zH17rOl-7" source="sA9mIBYFut_a3zH17rOl-8" target="sA9mIBYFut_a3zH17rOl-38" edge="1">
          <mxGeometry relative="1" as="geometry" />
        </mxCell>
        <mxCell id="sA9mIBYFut_a3zH17rOl-8" value="" style="sketch=0;points=[[0,0,0],[0.25,0,0],[0.5,0,0],[0.75,0,0],[1,0,0],[0,1,0],[0.25,1,0],[0.5,1,0],[0.75,1,0],[1,1,0],[0,0.25,0],[0,0.5,0],[0,0.75,0],[1,0.25,0],[1,0.5,0],[1,0.75,0]];outlineConnect=0;fontColor=#232F3E;fillColor=#8C4FFF;strokeColor=#ffffff;dashed=0;verticalLabelPosition=bottom;verticalAlign=top;align=center;html=1;fontSize=12;fontStyle=0;aspect=fixed;shape=mxgraph.aws4.resourceIcon;resIcon=mxgraph.aws4.api_gateway;" parent="sA9mIBYFut_a3zH17rOl-7" vertex="1">
          <mxGeometry x="-80" y="390" width="150" height="150" as="geometry" />
        </mxCell>
        <mxCell id="sA9mIBYFut_a3zH17rOl-47" style="edgeStyle=orthogonalEdgeStyle;rounded=0;orthogonalLoop=1;jettySize=auto;html=1;" parent="sA9mIBYFut_a3zH17rOl-7" target="sA9mIBYFut_a3zH17rOl-38" edge="1">
          <mxGeometry relative="1" as="geometry">
            <mxPoint x="370" y="215" as="sourcePoint" />
            <Array as="points">
              <mxPoint x="370" y="325" />
              <mxPoint x="370" y="325" />
            </Array>
          </mxGeometry>
        </mxCell>
        <mxCell id="sA9mIBYFut_a3zH17rOl-19" value="" style="image;aspect=fixed;html=1;points=[];align=center;fontSize=12;image=img/lib/azure2/identity/Verification_As_A_Service.svg;" parent="sA9mIBYFut_a3zH17rOl-7" vertex="1">
          <mxGeometry x="766.36" y="575" width="109.53" height="109.53" as="geometry" />
        </mxCell>
        <mxCell id="sA9mIBYFut_a3zH17rOl-24" value="&lt;font style=&quot;font-size: 16px;&quot;&gt;Amazon S3&lt;/font&gt;" style="sketch=0;outlineConnect=0;fontColor=#232F3E;gradientColor=none;strokeColor=#ffffff;fillColor=#232F3E;dashed=0;verticalLabelPosition=middle;verticalAlign=bottom;align=center;html=1;whiteSpace=wrap;fontSize=10;fontStyle=1;spacing=3;shape=mxgraph.aws4.productIcon;prIcon=mxgraph.aws4.s3;" parent="sA9mIBYFut_a3zH17rOl-7" vertex="1">
          <mxGeometry x="620" y="755.47" width="90" height="130" as="geometry" />
        </mxCell>
        <mxCell id="sA9mIBYFut_a3zH17rOl-46" style="edgeStyle=orthogonalEdgeStyle;rounded=0;orthogonalLoop=1;jettySize=auto;html=1;exitX=0.25;exitY=0;exitDx=0;exitDy=0;exitPerimeter=0;" parent="sA9mIBYFut_a3zH17rOl-7" source="sA9mIBYFut_a3zH17rOl-38" edge="1">
          <mxGeometry relative="1" as="geometry">
            <mxPoint x="297" y="205" as="targetPoint" />
            <Array as="points">
              <mxPoint x="298" y="235" />
              <mxPoint x="298" y="235" />
            </Array>
          </mxGeometry>
        </mxCell>
        <mxCell id="sA9mIBYFut_a3zH17rOl-54" style="edgeStyle=orthogonalEdgeStyle;rounded=0;orthogonalLoop=1;jettySize=auto;html=1;entryX=0.5;entryY=0;entryDx=0;entryDy=0;" parent="sA9mIBYFut_a3zH17rOl-7" source="sA9mIBYFut_a3zH17rOl-38" target="sA9mIBYFut_a3zH17rOl-49" edge="1">
          <mxGeometry relative="1" as="geometry" />
        </mxCell>
        <mxCell id="sA9mIBYFut_a3zH17rOl-69" style="edgeStyle=orthogonalEdgeStyle;rounded=0;orthogonalLoop=1;jettySize=auto;html=1;exitX=1;exitY=0.75;exitDx=0;exitDy=0;exitPerimeter=0;" parent="sA9mIBYFut_a3zH17rOl-7" source="sA9mIBYFut_a3zH17rOl-38" target="sA9mIBYFut_a3zH17rOl-24" edge="1">
          <mxGeometry relative="1" as="geometry">
            <Array as="points">
              <mxPoint x="665" y="512" />
            </Array>
          </mxGeometry>
        </mxCell>
        <mxCell id="sA9mIBYFut_a3zH17rOl-38" value="" style="sketch=0;points=[[0,0,0],[0.25,0,0],[0.5,0,0],[0.75,0,0],[1,0,0],[0,1,0],[0.25,1,0],[0.5,1,0],[0.75,1,0],[1,1,0],[0,0.25,0],[0,0.5,0],[0,0.75,0],[1,0.25,0],[1,0.5,0],[1,0.75,0]];outlineConnect=0;fontColor=#232F3E;fillColor=#8C4FFF;strokeColor=#ffffff;dashed=0;verticalLabelPosition=bottom;verticalAlign=top;align=center;html=1;fontSize=12;fontStyle=0;aspect=fixed;shape=mxgraph.aws4.resourceIcon;resIcon=mxgraph.aws4.serverless;" parent="sA9mIBYFut_a3zH17rOl-7" vertex="1">
          <mxGeometry x="250" y="370" width="190" height="190" as="geometry" />
        </mxCell>
        <mxCell id="sA9mIBYFut_a3zH17rOl-48" value="" style="sketch=0;points=[[0,0,0],[0.25,0,0],[0.5,0,0],[0.75,0,0],[1,0,0],[0,1,0],[0.25,1,0],[0.5,1,0],[0.75,1,0],[1,1,0],[0,0.25,0],[0,0.5,0],[0,0.75,0],[1,0.25,0],[1,0.5,0],[1,0.75,0]];outlineConnect=0;fontColor=#232F3E;fillColor=#E7157B;strokeColor=#ffffff;dashed=0;verticalLabelPosition=bottom;verticalAlign=top;align=center;html=1;fontSize=12;fontStyle=0;aspect=fixed;shape=mxgraph.aws4.resourceIcon;resIcon=mxgraph.aws4.appsync;" parent="sA9mIBYFut_a3zH17rOl-7" vertex="1">
          <mxGeometry x="410" y="772.97" width="95" height="95" as="geometry" />
        </mxCell>
        <mxCell id="sA9mIBYFut_a3zH17rOl-23" value="" style="outlineConnect=0;dashed=0;verticalLabelPosition=bottom;verticalAlign=top;align=center;html=1;shape=mxgraph.aws3.ses;fillColor=#D9A741;gradientColor=none;" parent="sA9mIBYFut_a3zH17rOl-7" vertex="1">
          <mxGeometry x="300" y="775.94" width="100" height="89.06" as="geometry" />
        </mxCell>
        <mxCell id="sA9mIBYFut_a3zH17rOl-22" value="" style="sketch=0;points=[[0,0,0],[0.25,0,0],[0.5,0,0],[0.75,0,0],[1,0,0],[0,1,0],[0.25,1,0],[0.5,1,0],[0.75,1,0],[1,1,0],[0,0.25,0],[0,0.5,0],[0,0.75,0],[1,0.25,0],[1,0.5,0],[1,0.75,0]];outlineConnect=0;fontColor=#232F3E;fillColor=#E7157B;strokeColor=#ffffff;dashed=0;verticalLabelPosition=bottom;verticalAlign=top;align=center;html=1;fontSize=12;fontStyle=0;aspect=fixed;shape=mxgraph.aws4.resourceIcon;resIcon=mxgraph.aws4.sns;" parent="sA9mIBYFut_a3zH17rOl-7" vertex="1">
          <mxGeometry x="190" y="770.94" width="94.06" height="94.06" as="geometry" />
        </mxCell>
        <mxCell id="sA9mIBYFut_a3zH17rOl-53" style="edgeStyle=orthogonalEdgeStyle;rounded=0;orthogonalLoop=1;jettySize=auto;html=1;" parent="sA9mIBYFut_a3zH17rOl-7" source="sA9mIBYFut_a3zH17rOl-49" edge="1">
          <mxGeometry relative="1" as="geometry">
            <mxPoint x="-420" y="585.0000000000002" as="targetPoint" />
          </mxGeometry>
        </mxCell>
        <mxCell id="sA9mIBYFut_a3zH17rOl-49" value="" style="rounded=0;whiteSpace=wrap;html=1;fillColor=none;" parent="sA9mIBYFut_a3zH17rOl-7" vertex="1">
          <mxGeometry x="170" y="760" width="350" height="150" as="geometry" />
        </mxCell>
        <mxCell id="sA9mIBYFut_a3zH17rOl-50" value="&lt;font style=&quot;font-size: 16px;&quot;&gt;aws appsync&lt;/font&gt;" style="text;html=1;align=center;verticalAlign=middle;whiteSpace=wrap;rounded=0;" parent="sA9mIBYFut_a3zH17rOl-7" vertex="1">
          <mxGeometry x="430" y="867.97" width="60" height="30" as="geometry" />
        </mxCell>
        <mxCell id="sA9mIBYFut_a3zH17rOl-51" value="&lt;font style=&quot;font-size: 16px;&quot;&gt;aws ses&lt;/font&gt;" style="text;html=1;align=center;verticalAlign=middle;whiteSpace=wrap;rounded=0;" parent="sA9mIBYFut_a3zH17rOl-7" vertex="1">
          <mxGeometry x="320" y="865" width="60" height="30" as="geometry" />
        </mxCell>
        <mxCell id="sA9mIBYFut_a3zH17rOl-52" value="&lt;font style=&quot;font-size: 16px;&quot;&gt;aws SNS&lt;/font&gt;" style="text;html=1;align=center;verticalAlign=middle;whiteSpace=wrap;rounded=0;" parent="sA9mIBYFut_a3zH17rOl-7" vertex="1">
          <mxGeometry x="200" y="865" width="60" height="30" as="geometry" />
        </mxCell>
        <mxCell id="sA9mIBYFut_a3zH17rOl-56" value="&lt;font style=&quot;font-size: 16px;&quot;&gt;Payment Gateway&lt;/font&gt;" style="html=1;whiteSpace=wrap;strokeColor=none;fillColor=#0079D6;labelPosition=center;verticalLabelPosition=middle;verticalAlign=top;align=center;fontSize=12;outlineConnect=0;spacingTop=-6;fontColor=#FFFFFF;sketch=0;shape=mxgraph.sitemap.payment;" parent="sA9mIBYFut_a3zH17rOl-7" vertex="1">
          <mxGeometry x="720" y="355" width="150" height="95" as="geometry" />
        </mxCell>
        <mxCell id="sA9mIBYFut_a3zH17rOl-70" style="edgeStyle=orthogonalEdgeStyle;rounded=0;orthogonalLoop=1;jettySize=auto;html=1;entryX=0.36;entryY=0.03;entryDx=0;entryDy=0;entryPerimeter=0;" parent="sA9mIBYFut_a3zH17rOl-7" source="sA9mIBYFut_a3zH17rOl-56" target="sA9mIBYFut_a3zH17rOl-19" edge="1">
          <mxGeometry relative="1" as="geometry">
            <Array as="points">
              <mxPoint x="806" y="485" />
              <mxPoint x="806" y="485" />
            </Array>
          </mxGeometry>
        </mxCell>
        <mxCell id="sA9mIBYFut_a3zH17rOl-71" value="" style="group" parent="sA9mIBYFut_a3zH17rOl-7" vertex="1" connectable="0">
          <mxGeometry x="210" y="85" width="283" height="115" as="geometry" />
        </mxCell>
        <mxCell id="sA9mIBYFut_a3zH17rOl-12" value="Amazon SQS" style="sketch=0;outlineConnect=0;fontColor=#232F3E;gradientColor=none;strokeColor=#ffffff;fillColor=#232F3E;dashed=0;verticalLabelPosition=middle;verticalAlign=bottom;align=center;html=1;whiteSpace=wrap;fontSize=10;fontStyle=1;spacing=3;shape=mxgraph.aws4.productIcon;prIcon=mxgraph.aws4.sqs;" parent="sA9mIBYFut_a3zH17rOl-71" vertex="1">
          <mxGeometry x="183" y="9.579999999999998" width="90" height="105.42" as="geometry" />
        </mxCell>
        <mxCell id="sA9mIBYFut_a3zH17rOl-15" value="" style="image;aspect=fixed;html=1;points=[];align=center;fontSize=12;image=img/lib/azure2/databases/Azure_Database_PostgreSQL_Server_Group.svg;container=0;" parent="sA9mIBYFut_a3zH17rOl-71" vertex="1">
          <mxGeometry x="14.416666666666686" y="9.583333333333329" width="63.606333333333325" height="72.08333333333334" as="geometry" />
        </mxCell>
        <mxCell id="sA9mIBYFut_a3zH17rOl-16" value="" style="image;sketch=0;aspect=fixed;html=1;points=[];align=center;fontSize=12;image=img/lib/mscae/Cache_Redis_Product.svg;container=0;" parent="sA9mIBYFut_a3zH17rOl-71" vertex="1">
          <mxGeometry x="86.5" y="19.16666666666667" width="77.23729166666668" height="64.875" as="geometry" />
        </mxCell>
        <mxCell id="sA9mIBYFut_a3zH17rOl-57" value="" style="rounded=0;whiteSpace=wrap;html=1;fillColor=none;container=0;" parent="sA9mIBYFut_a3zH17rOl-71" vertex="1">
          <mxGeometry width="283" height="115" as="geometry" />
        </mxCell>
        <mxCell id="sA9mIBYFut_a3zH17rOl-72" value="" style="edgeStyle=orthogonalEdgeStyle;rounded=0;orthogonalLoop=1;jettySize=auto;html=1;entryX=0.346;entryY=0.957;entryDx=0;entryDy=0;entryPerimeter=0;" parent="sA9mIBYFut_a3zH17rOl-7" source="sA9mIBYFut_a3zH17rOl-24" target="sA9mIBYFut_a3zH17rOl-19" edge="1">
          <mxGeometry relative="1" as="geometry">
            <mxPoint x="1290" y="905" as="sourcePoint" />
            <mxPoint x="805.02" y="734.0400000000002" as="targetPoint" />
          </mxGeometry>
        </mxCell>
        <mxCell id="sA9mIBYFut_a3zH17rOl-75" value="&lt;font style=&quot;font-size: 16px;&quot;&gt;Volume Pay&lt;/font&gt;" style="text;html=1;align=center;verticalAlign=middle;whiteSpace=wrap;rounded=0;" parent="sA9mIBYFut_a3zH17rOl-7" vertex="1">
          <mxGeometry x="720" y="470" width="60" height="30" as="geometry" />
        </mxCell>
        <mxCell id="sA9mIBYFut_a3zH17rOl-76" value="&lt;font style=&quot;font-size: 16px;&quot;&gt;Sumsub handles KYC&lt;/font&gt;&lt;div&gt;&lt;font style=&quot;font-size: 16px;&quot;&gt;and AML checks&lt;/font&gt;&lt;/div&gt;" style="text;html=1;align=center;verticalAlign=middle;resizable=0;points=[];autosize=1;strokeColor=none;fillColor=none;" parent="sA9mIBYFut_a3zH17rOl-7" vertex="1">
          <mxGeometry x="740" y="685" width="180" height="50" as="geometry" />
        </mxCell>
        <mxCell id="sA9mIBYFut_a3zH17rOl-77" style="edgeStyle=orthogonalEdgeStyle;rounded=0;orthogonalLoop=1;jettySize=auto;html=1;exitX=1;exitY=0.25;exitDx=0;exitDy=0;exitPerimeter=0;entryX=0.038;entryY=0.65;entryDx=0;entryDy=0;entryPerimeter=0;" parent="sA9mIBYFut_a3zH17rOl-7" source="sA9mIBYFut_a3zH17rOl-38" target="sA9mIBYFut_a3zH17rOl-56" edge="1">
          <mxGeometry relative="1" as="geometry" />
        </mxCell>
        <mxCell id="sA9mIBYFut_a3zH17rOl-37" value="" style="group" parent="1" vertex="1" connectable="0">
          <mxGeometry x="110" y="470" width="180" height="180" as="geometry" />
        </mxCell>
        <mxCell id="sA9mIBYFut_a3zH17rOl-32" value="" style="whiteSpace=wrap;html=1;aspect=fixed;" parent="sA9mIBYFut_a3zH17rOl-37" vertex="1">
          <mxGeometry width="180" height="180" as="geometry" />
        </mxCell>
        <mxCell id="sA9mIBYFut_a3zH17rOl-33" value="" style="html=1;verticalLabelPosition=bottom;align=center;labelBackgroundColor=#ffffff;verticalAlign=top;strokeWidth=2;strokeColor=#0080F0;shadow=0;dashed=0;shape=mxgraph.ios7.icons.smartphone;" parent="sA9mIBYFut_a3zH17rOl-37" vertex="1">
          <mxGeometry x="130" y="10" width="38" height="70" as="geometry" />
        </mxCell>
        <mxCell id="sA9mIBYFut_a3zH17rOl-34" value="" style="image;aspect=fixed;perimeter=ellipsePerimeter;html=1;align=center;shadow=0;dashed=0;spacingTop=3;image=img/lib/active_directory/laptop_client.svg;" parent="sA9mIBYFut_a3zH17rOl-37" vertex="1">
          <mxGeometry x="105" y="100" width="63" height="70" as="geometry" />
        </mxCell>
        <mxCell id="sA9mIBYFut_a3zH17rOl-36" value="" style="outlineConnect=0;dashed=0;verticalLabelPosition=bottom;verticalAlign=top;align=center;html=1;shape=mxgraph.aws3.users;fillColor=#D2D3D3;gradientColor=none;" parent="sA9mIBYFut_a3zH17rOl-37" vertex="1">
          <mxGeometry x="10" y="33.5" width="100" height="113" as="geometry" />
        </mxCell>
        <mxCell id="sA9mIBYFut_a3zH17rOl-40" style="edgeStyle=orthogonalEdgeStyle;rounded=0;orthogonalLoop=1;jettySize=auto;html=1;exitX=1;exitY=0.5;exitDx=0;exitDy=0;" parent="sA9mIBYFut_a3zH17rOl-37" source="sA9mIBYFut_a3zH17rOl-32" edge="1">
          <mxGeometry relative="1" as="geometry">
            <mxPoint x="380" y="90" as="targetPoint" />
          </mxGeometry>
        </mxCell>
        <mxCell id="sA9mIBYFut_a3zH17rOl-78" value="Text" style="text;html=1;align=center;verticalAlign=middle;resizable=0;points=[];autosize=1;strokeColor=none;fillColor=none;" parent="1" vertex="1">
          <mxGeometry x="855" y="648" width="50" height="30" as="geometry" />
        </mxCell>
      </root>
    </mxGraphModel>
  </diagram>
</mxfile>
